#N canvas 524 177 178 92 10;
#N canvas 686 94 377 77 \$0-guts 0;
#X obj 15 12 r 1016-print;
#X obj 15 32 print ERROR - reference to undefined data in environment
1004-sandbox;
#X connect 0 0 1 0;
#X restore 11 67 pd \$0-guts;
#X text 6 5 Dynamic Print;
#N canvas 710 256 242 204 set_msg 0;
#X obj 10 10 inlet;
#X obj 10 170 s pd-\$0-guts;
#X obj 27 110 list;
#X obj 10 30 t b b a b;
#X obj 61 50 f \$0;
#X msg 27 90 obj 0 20 print;
#X obj 27 130 list trim;
#X msg 10 150 connect 0 0 1 0 \, vis 0 \,;
#X msg 61 70 clear \, obj 0 0 r \$1-print \,;
#X connect 0 0 3 0;
#X connect 2 0 6 0;
#X connect 3 0 7 0;
#X connect 3 1 5 0;
#X connect 3 2 2 1;
#X connect 3 3 4 0;
#X connect 4 0 8 0;
#X connect 5 0 2 0;
#X connect 6 0 1 0;
#X connect 7 0 1 0;
#X connect 8 0 1 0;
#X restore 84 47 pd set_msg;
#X obj 11 27 inlet MSG;
#X obj 84 27 inlet PRINTER;
#X obj 11 47 s \$0-print;
#X connect 3 0 5 0;
#X connect 4 0 2 0;
